<svg xmlns="http://www.w3.org/2000/svg" viewBox="0 0 64 64" width="64" height="64">
  <!-- Favicon 2: SF Lettermark (simplified from Concept D) -->
  <rect width="64" height="64" rx="14" fill="#4F46E5"/>
  <!-- Pixel texture hints -->
  <rect x="0" y="0" width="32" height="32" rx="0" fill="#4338CA" opacity="0.3"/>
  <rect x="32" y="32" width="32" height="32" rx="0" fill="#5B21B6" opacity="0.25"/>
  <!-- S carved out -->
  <rect x="8" y="12" width="18" height="5" rx="1" fill="#0A0818"/>
  <rect x="8" y="12" width="6" height="12" rx="1" fill="#0A0818"/>
  <rect x="8" y="29" width="18" height="5" rx="1" fill="#0A0818"/>
  <rect x="20" y="29" width="6" height="12" rx="1" fill="#0A0818"/>
  <rect x="8" y="46" width="18" height="5" rx="1" fill="#0A0818"/>
  <!-- F carved out -->
  <rect x="34" y="12" width="6" height="39" rx="1" fill="#0A0818"/>
  <rect x="34" y="12" width="20" height="5" rx="1" fill="#0A0818"/>
  <rect x="34" y="29" width="16" height="5" rx="1" fill="#0A0818"/>
  <!-- Amber accent pixel at S-F junction -->
  <rect x="27" y="29" width="5" height="5" rx="1" fill="#F59E0B"/>
</svg>