<svg xmlns="http://www.w3.org/2000/svg" viewBox="0 0 64 64" width="64" height="64">
  <!-- Favicon 1: Voxel Constructor (simplified from Concept A) -->
  <rect width="64" height="64" rx="14" fill="#0A0818"/>
  <!-- Isometric cube — simplified 3 faces -->
  <polygon points="32,48 14,38 14,22 32,32" fill="#4338CA"/>
  <polygon points="32,48 50,38 50,22 32,32" fill="#4F46E5"/>
  <polygon points="14,22 32,12 50,22 32,32" fill="#5B21B6"/>
  <!-- Floating amber pixel snapping in -->
  <polygon points="50,22 38,15 38,5 50,12" fill="#F59E0B"/>
  <polygon points="50,22 62,15 62,5 50,12" fill="#D97706"/>
  <polygon points="38,5 50,-2 62,5 50,12" fill="#FBBF24"/>
  <!-- Spark dots -->
  <rect x="56" y="2" width="3" height="3" rx="0.5" fill="#FBBF24" opacity="0.7"/>
  <rect x="60" y="10" width="2" height="2" rx="0.5" fill="#F59E0B" opacity="0.5"/>
</svg>